inDegrees=no
num_controls=7
num_derivatives=13
num_iterations=92
num_multipliers=7
num_parameters=0
num_slacks=7
num_states=26
objective=0.334991
objective_accelerations=0.034930
objective_balance=0.001301
objective_effort=0.025891
objective_height=0.271412
objective_ligament=0.001457
solver_duration=990.020118
status=Solve_Succeeded
success=true
DataType=double
version=3
OpenSimVersion=4.5
endheader
time	/jointset/ground_pelvis/pelvis_tilt/value	/jointset/ground_pelvis/pelvis_tx/value	/jointset/ground_pelvis/pelvis_ty/value	/jointset/hip_r/hip_flexion_r/value	/jointset/hip_r/hip_adduction_r/value	/jointset/hip_r/hip_rotation_r/value	/jointset/back/lumbar_extension/value	/jointset/patellofemoral_r/patellar_flexion_r/value	/jointset/knee_r/knee_flexion_r/value	/jointset/knee_r/knee_adduction_r/value	/jointset/knee_r/knee_rotation_r/value	/jointset/ankle_r/ankle_angle_r/value	/jointset/subtalar_r/subtalar_angle_r/value	/jointset/ground_pelvis/pelvis_tilt/speed	/jointset/ground_pelvis/pelvis_tx/speed	/jointset/ground_pelvis/pelvis_ty/speed	/jointset/hip_r/hip_flexion_r/speed	/jointset/hip_r/hip_adduction_r/speed	/jointset/hip_r/hip_rotation_r/speed	/jointset/back/lumbar_extension/speed	/jointset/patellofemoral_r/patellar_flexion_r/speed	/jointset/knee_r/knee_flexion_r/speed	/jointset/knee_r/knee_adduction_r/speed	/jointset/knee_r/knee_rotation_r/speed	/jointset/ankle_r/ankle_angle_r/speed	/jointset/subtalar_r/subtalar_angle_r/speed	/forceset/tau_hip_flexion_r	/forceset/tau_hip_adduction_r	/forceset/tau_hip_rotation_r	/forceset/tau_knee_flexion_r	/forceset/tau_ankle_angle_r	/forceset/tau_subtalar_angle_r	/forceset/tau_lumbar_extension	lambda_cid13_p0	lambda_cid14_p0	lambda_cid14_p1	lambda_cid14_p2	lambda_cid14_p3	lambda_cid14_p4	lambda_cid14_p5	/jointset/ground_pelvis/pelvis_tilt/accel	/jointset/ground_pelvis/pelvis_tx/accel	/jointset/ground_pelvis/pelvis_ty/accel	/jointset/hip_r/hip_flexion_r/accel	/jointset/hip_r/hip_adduction_r/accel	/jointset/hip_r/hip_rotation_r/accel	/jointset/back/lumbar_extension/accel	/jointset/patellofemoral_r/patellar_flexion_r/accel	/jointset/knee_r/knee_flexion_r/accel	/jointset/knee_r/knee_adduction_r/accel	/jointset/knee_r/knee_rotation_r/accel	/jointset/ankle_r/ankle_angle_r/accel	/jointset/subtalar_r/subtalar_angle_r/accel	gamma_cid13_p0	gamma_cid14_p0	gamma_cid14_p1	gamma_cid14_p2	gamma_cid14_p3	gamma_cid14_p4	gamma_cid14_p5
1	-0.2557963044951752	-0.002911878617484089	0.6514994045323301	1.398324911384596	-0.2355178289080994	-0.09922228577424552	-0.7853929251869509	1.459562532109599	1.459562532109603	-0.1745114200411809	0.1717088170732928	0.4362335370399205	0.1813335219373721	0.06862937628490019	0.007367680704151021	0.01583624659500953	-0.1027011135328064	-0.002150761450083104	-0.0002741739423588694	0.0007400499850008788	-0.01827831055207306	-0.01827831055207333	0.00776329765967561	0.001258384036405757	0.01529247549696081	0.003964115581386137	-0.3461797838860547	0.04831165927705226	0.009363597276500109	-0.4249228025990671	-0.04880320682195673	0.002153173189681262	0.3637143670251958	-0.04171912116036323	-67.46885946646678	-15.26061616354314	7.860683147088872	8.173219084229498	-766.3818855074259	55.1935036123182	1.36259897184728	0.1655913656057923	1.748557984275255	-5.350409882733789	0.201212186031565	-0.1919267149219222	0.03255079808724384	-4.889909947889467	-4.889909947889462	1.145844351159025	0.07305218911896863	-1.109809312251533	-0.1971636781895184	-2.138405406673419e-09	-4.801302826871659e-09	7.915601197404256e-10	-1.835264240036611e-08	4.327150745504548e-09	-3.412671938539361e-09	-1.315229474827769e-08
1.01	-0.2550426359603933	-0.002829677042783425	0.6517449902122163	1.397031225884292	-0.2355296183489651	-0.09923132974361436	-0.7853811169578944	1.459136153100886	1.459136153100874	-0.174372917480195	0.1717249756236596	0.4363313887626119	0.1813627925951785	0.08209594093319951	0.009100775709783019	0.03327352356702871	-0.1560439977597898	-0.00022730193544108	-0.001460985526237174	0.001822643075846037	-0.06695491084203943	-0.06695491084203969	0.02002660478544401	0.001983984450256887	0.004327291157683344	0.00187584776940907	-0.3473686340712245	0.04834353525931003	0.009394669327009183	-0.4244698226987764	-0.04941094581972031	0.00220378191451081	0.3651532923235237	-0.04170290428373007	-67.68640880556701	-15.26041138816643	7.842013110245791	7.901033299425674	-767.0461275605134	55.17200042379805	1.337428149753841	0.1813898591011268	1.740205852248109	-5.327428158323317	0.1848905937957807	-0.07101179613044649	0.1762706520390864	-4.850148705334977	-4.85014870533497	1.279983235996819	0.07392117275359446	-1.082460325597192	-0.2167748386157437	3.384358441233479e-09	3.690388316260761e-09	3.294577625492079e-08	2.911166503944138e-08	3.901990645168215e-10	-9.08835027900507e-09	5.807414966699194e-08
1.02	-0.2541545531914436	-0.002729300259814672	0.6521647273215386	1.395203871448586	-0.2355227776427556	-0.09925003251205232	-0.7853524513804386	1.458224285362117	1.45822428536211	-0.1741090999794235	0.1717487116191923	0.4363210711758116	0.181370757273683	0.09551222311881191	0.01100272235776881	0.0506665324823663	-0.2094349006124796	0.001575267963824365	-0.00220593375051398	0.00411151966493226	-0.1153760565633976	-0.1153760565633981	0.03282628561965428	0.00277387307352691	-0.006341386414847426	-0.0002970802791278221	-0.3485574842564014	0.04837541124151845	0.009425741377780123	-0.4240168427984575	-0.05001868481749643	0.002254390639234978	0.3665922176218429	-0.04169296513825783	-67.91106949830188	-15.25464719457327	7.814683845191742	7.625262080320637	-767.8403265137919	55.19517508246003	1.352542479309946	0.1993616940765167	1.73970437293893	-5.360013607875072	0.1770342629562638	-0.1035540430016438	0.2738074977354604	-4.838819034167829	-4.838819034167877	1.253119092847358	0.08590983100273193	-1.05050795890225	-0.2140957255014837	1.062594594580938e-08	1.489702610907205e-08	6.762550273107762e-08	8.625786087913438e-08	-6.67203967535432e-09	-1.633961222083582e-08	1.444352335480526e-07
1.03	-0.2531334022785819	-0.002609286617287173	0.652758120561613	1.392843442542414	-0.2354982802824248	-0.09927486351566064	-0.7852949321834997	1.456828898629443	1.456828898629424	-0.1737156362830288	0.1717804748353354	0.4362048153014735	0.181356655091323	0.1086230168190797	0.01300552896841147	0.06799919263851781	-0.2625489006382811	0.003328056997849607	-0.002773923092518099	0.007589676776877122	-0.1637168339672257	-0.1637168339672283	0.04585324778861322	0.003568590000136683	-0.01693371643203757	-0.002527991206905719	-0.3488171797787984	0.04847325970226184	0.009533079350031939	-0.4236670908580112	-0.05055276018329552	0.002245560306770943	0.3671701838928471	-0.04172073071668193	-68.10368998499369	-15.27449783837679	7.797618797708621	7.690346115577562	-768.1879082653563	55.19006984674465	1.276111788962387	0.2015657713737644	1.728103637427018	-5.271791125272995	0.1749977393862407	-0.03545667280090903	0.4144233760346674	-4.834042313856663	-4.834042313856912	1.325500732076904	0.07476346553686498	-1.067184317377048	-0.2282508263165935	1.788507246729007e-08	2.613136743912498e-08	1.023309997209179e-07	1.435028514984181e-07	-1.37661690994998e-08	-2.360695154635399e-08	2.30950752525703e-07
1.04	-0.2519839906340027	-0.002469079783290186	0.6535244517633427	1.38995493405092	-0.2354561357285951	-0.0993057814713186	-0.785196710703817	1.454949637078657	1.454949637078649	-0.1731922997743355	0.1718198873891331	0.4359819183681171	0.1813201113897059	0.1211643694624451	0.01504136065166645	0.08525412481361894	-0.3150508176776929	0.005104706662312379	-0.003423324154579831	0.0122519762132524	-0.21215102018571	-0.2121510201857141	0.05880084808384262	0.004303740608619336	-0.02766959821921327	-0.004785384130711812	-0.349076875301171	0.04857110816295453	0.009640417322609314	-0.4233173389175288	-0.05108683554911279	0.002236729974194625	0.3677481501638721	-0.04175478494620229	-68.30340673252626	-15.28870638389386	7.771789905107262	7.750016535725215	-768.6668988057449	55.22986564780798	1.238654267929503	0.2059667085989604	1.724158776728853	-5.237597010597148	0.181806389043775	-0.1198363870131884	0.5106359626215514	-4.857500797099044	-4.857500797098993	1.237246718101412	0.07399656737730052	-1.079218312899391	-0.2193921247071219	2.236725141956107e-08	3.366028954831699e-08	1.320068831987126e-07	1.849558776995267e-07	-1.844250798822706e-08	-2.861853214229828e-08	2.920196515409448e-07
1.05	-0.2507114300884682	-0.0023082618342029	0.6544628998454243	1.386543965285992	-0.2353962066203081	-0.0993438935750235	-0.7850463126802184	1.452585828604344	1.452585828604333	-0.1725401323522183	0.1718665099590053	0.4356511450594735	0.1812607875115746	0.1333070333704077	0.0171364133118402	0.1024178129948976	-0.3670868902137711	0.006874429541948156	-0.004232073127174786	0.01799298975399001	-0.2605995644973665	-0.2605995644973697	0.07160550745434482	0.005026165004625979	-0.03848981262307785	-0.007092841717588005	-0.3492326736018495	0.04861124661660002	0.009778934739615101	-0.4225053620039682	-0.05163175566298524	0.002230305543151802	0.3682575123943163	-0.04178693474782106	-68.47463437224431	-15.28875631528009	7.73442291412851	7.729414278204779	-768.7392798159609	55.21761576706457	1.195974752698136	0.2133975114481453	1.70981528583413	-5.178197740316275	0.1735822491345151	-0.06632096271206434	0.630638236954452	-4.836870118197303	-4.836870118197186	1.298002313678269	0.07223327199158602	-1.084134869680696	-0.2383878724091923	2.676265076029428e-08	4.107341730685711e-08	1.61525591254256e-07	2.259154050125674e-07	-2.304329092272251e-08	-3.35596202779434e-08	3.522933436823617e-07
1.06	-0.2493186624437619	-0.002126068765169597	0.655572453098719	1.382614318722671	-0.2353187748808761	-0.09939107853054274	-0.7848335436837799	1.449737866912914	1.44973786691291	-0.1717607329829757	0.1719205303520787	0.4352120272336844	0.1811779959982289	0.1452057892971216	0.01931638464086968	0.119475159056439	-0.4187863773579715	0.00860523289003455	-0.005237894512956351	0.0247261707809146	-0.3089816636089605	-0.3089816636089635	0.08424723751099153	0.005783305251804361	-0.04933850164897106	-0.009478911173719063	-0.3493884719024757	0.04865138507021272	0.009917452156826972	-0.4216933850903845	-0.05217667577687577	0.002223881112033293	0.3687668746248075	-0.04182577789171945	-68.65315982845546	-15.28326957543483	7.688389053281018	7.703920344600576	-768.9460354320811	55.2496906139752	1.189872671679768	0.2229504423700876	1.70289035278141	-5.170279932221614	0.1740224827339023	-0.1592508696505336	0.7090694598589544	-4.844211757086564	-4.844211757086614	1.204660855330282	0.08093973761164679	-1.084913237305144	-0.2351144985580981	3.031810619414779e-08	4.603118523360447e-08	1.778062193963988e-07	2.558027703458579e-07	-2.547725924616298e-08	-3.75533169857018e-08	3.9103740837387e-07
1.07	-0.2478080059939513	-0.001921639589824118	0.6568519951318912	1.37816935154404	-0.2352241890857223	-0.09944914174188083	-0.7845487138111086	1.446406516635347	1.446406516635343	-0.1708556618921051	0.171982095644575	0.4346642551327355	0.1810710165352878	0.1568944626204712	0.02158478865791725	0.1364100682762527	-0.470149527616179	0.01030904605728349	-0.006378060516569337	0.03238499467068737	-0.357266362207137	-0.357266362207135	0.09676030924121561	0.006513868171813191	-0.06022352955139691	-0.01192485557018355	-0.3491415898604195	0.04866045631418457	0.0101156299136283	-0.4206624034576703	-0.05254201045339774	0.002187264723284526	0.3689386652393402	-0.04187149180694157	-68.74767758335796	-15.27608088005021	7.641964148225359	7.655864493651445	-768.7187639834126	55.23859925463519	1.153719115307545	0.2310805237948691	1.685305956239119	-5.110693265235559	0.1681664319345715	-0.09187078372109631	0.8160674911700737	-4.817301272011048	-4.817301272010264	1.273624091010293	0.06680547215362832	-1.091438365348215	-0.2504514198896085	3.38288837606141e-08	5.085834891397987e-08	1.933826943516585e-07	2.851011908929914e-07	-2.779597147327073e-08	-4.149662053240238e-08	4.286362801159149e-07
1.08	-0.2461813919203797	-0.001694067345823648	0.6583001892071922	1.373212480724312	-0.2351126440192474	-0.09951870087687453	-0.7841829399720116	1.442592978899632	1.442592978899634	-0.1698256613321084	0.1720505047468518	0.4340074045930375	0.180939354226443	0.1683973140496301	0.02394499837186778	0.1532055674823657	-0.5211671055789945	0.01199708715310599	-0.007537079240367175	0.04091496406580899	-0.4054191552384314	-0.4054191552384248	0.1092331313371103	0.007152067210149261	-0.07115418939929959	-0.01441548035460905	-0.34889470781832	0.04866952755813204	0.01031380767057183	-0.41963142182494	-0.05290734512993378	0.002150648334479496	0.3691104558539122	-0.04192409651631748	-68.84965884880791	-15.26351630628248	7.587048484830454	7.602581880772528	-768.6287138993965	55.27086475619117	1.15270829284165	0.2413115817506623	1.675008350041258	-5.10116547314321	0.1708680684486171	-0.1630214136875301	0.8832985609287339	-4.817830643710144	-4.817830643710235	1.196610928464375	0.06246696127709919	-1.094039626400538	-0.2440505761503056	3.681179233666453e-08	5.539027018952792e-08	2.103517281135098e-07	3.128065842071982e-07	-3.044836855834473e-08	-4.475475212801832e-08	4.638519652417403e-07
1.09	-0.2444406523206526	-0.00144241429345128	0.6599155630751236	1.367747277317106	-0.2349843070605483	-0.09960021282577222	-0.7837275575792926	1.438298681180651	1.43829868118065	-0.1686714353197011	0.1721248400452788	0.4332410100088417	0.1807825527755202	0.1797196324617896	0.02640288593191135	0.1698380037935792	-0.5718020678307255	0.01366614537400923	-0.008779077266360465	0.05030513976661048	-0.4534063302155421	-0.4534063302155497	0.1215922457873916	0.007698515437740224	-0.08213357597152882	-0.01695480323468624	-0.3482871717282033	0.04863053604853598	0.01055429527542584	-0.4183296335314298	-0.0531253653055251	0.002093679068671299	0.3689880839738851	-0.04198329843932554	-68.87552268728965	-15.24431130798733	7.528616430651285	7.515398033570316	-768.0944263862216	55.2610792397081	1.117359496999141	0.2506117435709136	1.652671274684814	-5.033924019505085	0.164346183449763	-0.1068234624550988	0.988420867985398	-4.78406017778787	-4.784060177789902	1.25258185964959	0.0483496595977818	-1.101214513950505	-0.2602960906423635	3.975453696779203e-08	5.989972736905652e-08	2.274267174367322e-07	3.403907689275954e-07	-3.312615470869876e-08	-4.796075107518217e-08	4.988863209511142e-07
